<mxfile host="Electron" modified="2023-05-17T14:25:26.744Z" agent="Mozilla/5.0 (Macintosh; Intel Mac OS X 10_15_7) AppleWebKit/537.36 (KHTML, like Gecko) draw.io/21.2.1 Chrome/112.0.5615.87 Electron/24.1.2 Safari/537.36" etag="6T9zFUAw26xmanFLc-O2" version="21.2.1" type="device">
  <diagram name="Page-1" id="z_Hqgp_Lde0CK_qqxdGJ">
    <mxGraphModel dx="1207" dy="775" grid="1" gridSize="10" guides="1" tooltips="1" connect="1" arrows="1" fold="1" page="1" pageScale="1" pageWidth="850" pageHeight="1100" math="0" shadow="0">
      <root>
        <mxCell id="0" />
        <mxCell id="1" parent="0" />
        <mxCell id="ahbQg0oBCL9CJKPBySa7-7" style="edgeStyle=orthogonalEdgeStyle;rounded=0;orthogonalLoop=1;jettySize=auto;html=1;exitX=0.5;exitY=1;exitDx=0;exitDy=0;exitPerimeter=0;entryX=0.5;entryY=0;entryDx=0;entryDy=0;" edge="1" parent="1" source="ahbQg0oBCL9CJKPBySa7-1" target="ahbQg0oBCL9CJKPBySa7-6">
          <mxGeometry relative="1" as="geometry" />
        </mxCell>
        <mxCell id="ahbQg0oBCL9CJKPBySa7-1" value="&lt;b&gt;Datazone&lt;/b&gt;" style="shape=cylinder3;whiteSpace=wrap;html=1;boundedLbl=1;backgroundOutline=1;size=15;" vertex="1" parent="1">
          <mxGeometry x="170" y="90" width="60" height="80" as="geometry" />
        </mxCell>
        <mxCell id="ahbQg0oBCL9CJKPBySa7-8" style="edgeStyle=orthogonalEdgeStyle;rounded=0;orthogonalLoop=1;jettySize=auto;html=1;exitX=0.5;exitY=1;exitDx=0;exitDy=0;exitPerimeter=0;entryX=0.5;entryY=0;entryDx=0;entryDy=0;" edge="1" parent="1" source="ahbQg0oBCL9CJKPBySa7-2" target="ahbQg0oBCL9CJKPBySa7-5">
          <mxGeometry relative="1" as="geometry" />
        </mxCell>
        <mxCell id="ahbQg0oBCL9CJKPBySa7-2" value="&lt;b&gt;SIMD&lt;/b&gt;" style="shape=cylinder3;whiteSpace=wrap;html=1;boundedLbl=1;backgroundOutline=1;size=15;" vertex="1" parent="1">
          <mxGeometry x="280" y="90" width="60" height="80" as="geometry" />
        </mxCell>
        <mxCell id="ahbQg0oBCL9CJKPBySa7-4" value="&lt;b&gt;&lt;font style=&quot;font-size: 10px;&quot;&gt;Scottish Index of Multiple Deprivation:&lt;/font&gt;&lt;br&gt;&lt;/b&gt;&lt;font style=&quot;font-size: 8px;&quot;&gt;The SIMD is calculated using data from a variety of sources, including income, employment, education, health, and crime.&lt;/font&gt;&lt;b&gt;&lt;br&gt;&lt;/b&gt;" style="text;whiteSpace=wrap;html=1;" vertex="1" parent="1">
          <mxGeometry x="350" y="110" width="250" height="50" as="geometry" />
        </mxCell>
        <mxCell id="ahbQg0oBCL9CJKPBySa7-13" style="edgeStyle=orthogonalEdgeStyle;rounded=0;orthogonalLoop=1;jettySize=auto;html=1;exitX=0.5;exitY=1;exitDx=0;exitDy=0;entryX=0;entryY=0.5;entryDx=0;entryDy=0;" edge="1" parent="1" source="ahbQg0oBCL9CJKPBySa7-9" target="ahbQg0oBCL9CJKPBySa7-12">
          <mxGeometry relative="1" as="geometry">
            <Array as="points">
              <mxPoint x="150" y="330" />
            </Array>
          </mxGeometry>
        </mxCell>
        <mxCell id="ahbQg0oBCL9CJKPBySa7-14" style="edgeStyle=orthogonalEdgeStyle;rounded=0;orthogonalLoop=1;jettySize=auto;html=1;exitX=0.5;exitY=1;exitDx=0;exitDy=0;entryX=1;entryY=0.5;entryDx=0;entryDy=0;" edge="1" parent="1" source="ahbQg0oBCL9CJKPBySa7-11" target="ahbQg0oBCL9CJKPBySa7-12">
          <mxGeometry relative="1" as="geometry">
            <Array as="points">
              <mxPoint x="350" y="330" />
            </Array>
          </mxGeometry>
        </mxCell>
        <mxCell id="ahbQg0oBCL9CJKPBySa7-16" style="edgeStyle=orthogonalEdgeStyle;rounded=0;orthogonalLoop=1;jettySize=auto;html=1;exitX=0.5;exitY=1;exitDx=0;exitDy=0;" edge="1" parent="1" source="ahbQg0oBCL9CJKPBySa7-12" target="ahbQg0oBCL9CJKPBySa7-15">
          <mxGeometry relative="1" as="geometry" />
        </mxCell>
        <mxCell id="ahbQg0oBCL9CJKPBySa7-12" value="&lt;font color=&quot;#7da140&quot;&gt;&lt;b&gt;Join Attributes by Field Table&lt;/b&gt;&lt;/font&gt;&lt;br&gt;Shared ID: Datazone" style="rounded=1;whiteSpace=wrap;html=1;" vertex="1" parent="1">
          <mxGeometry x="160" y="300" width="180" height="60" as="geometry" />
        </mxCell>
        <mxCell id="ahbQg0oBCL9CJKPBySa7-25" style="edgeStyle=orthogonalEdgeStyle;rounded=0;orthogonalLoop=1;jettySize=auto;html=1;exitX=0.5;exitY=1;exitDx=0;exitDy=0;" edge="1" parent="1" source="ahbQg0oBCL9CJKPBySa7-15" target="ahbQg0oBCL9CJKPBySa7-24">
          <mxGeometry relative="1" as="geometry" />
        </mxCell>
        <mxCell id="ahbQg0oBCL9CJKPBySa7-15" value="Scottish Datazones&lt;br&gt;with Socioeconomic attributes" style="rounded=0;whiteSpace=wrap;html=1;" vertex="1" parent="1">
          <mxGeometry x="140" y="380" width="220" height="60" as="geometry" />
        </mxCell>
        <mxCell id="ahbQg0oBCL9CJKPBySa7-17" value="" style="group" vertex="1" connectable="0" parent="1">
          <mxGeometry x="90" y="200" width="120" height="80" as="geometry" />
        </mxCell>
        <mxCell id="ahbQg0oBCL9CJKPBySa7-6" value="Scottish Datazones" style="rounded=0;whiteSpace=wrap;html=1;" vertex="1" parent="ahbQg0oBCL9CJKPBySa7-17">
          <mxGeometry width="120" height="60" as="geometry" />
        </mxCell>
        <mxCell id="ahbQg0oBCL9CJKPBySa7-9" value="&lt;div style=&quot;&quot;&gt;&lt;b style=&quot;background-color: initial;&quot;&gt;&lt;span style=&quot;font-size: 10px;&quot;&gt;Spatial data&lt;/span&gt;&lt;/b&gt;&lt;/div&gt;" style="text;whiteSpace=wrap;html=1;align=center;verticalAlign=middle;" vertex="1" parent="ahbQg0oBCL9CJKPBySa7-17">
          <mxGeometry y="60" width="120" height="20" as="geometry" />
        </mxCell>
        <mxCell id="ahbQg0oBCL9CJKPBySa7-18" value="" style="group" vertex="1" connectable="0" parent="1">
          <mxGeometry x="290" y="200" width="120" height="80" as="geometry" />
        </mxCell>
        <mxCell id="ahbQg0oBCL9CJKPBySa7-5" value="Socioeconomic&lt;br&gt;Attributes Table" style="rounded=0;whiteSpace=wrap;html=1;" vertex="1" parent="ahbQg0oBCL9CJKPBySa7-18">
          <mxGeometry width="120" height="60" as="geometry" />
        </mxCell>
        <mxCell id="ahbQg0oBCL9CJKPBySa7-11" value="&lt;div style=&quot;&quot;&gt;&lt;b style=&quot;background-color: initial;&quot;&gt;&lt;span style=&quot;font-size: 10px;&quot;&gt;Aspatial data&lt;/span&gt;&lt;/b&gt;&lt;/div&gt;" style="text;whiteSpace=wrap;html=1;align=center;verticalAlign=middle;" vertex="1" parent="ahbQg0oBCL9CJKPBySa7-18">
          <mxGeometry y="60" width="120" height="20" as="geometry" />
        </mxCell>
        <mxCell id="ahbQg0oBCL9CJKPBySa7-23" style="edgeStyle=orthogonalEdgeStyle;rounded=0;orthogonalLoop=1;jettySize=auto;html=1;exitX=0.5;exitY=1;exitDx=0;exitDy=0;exitPerimeter=0;entryX=0.5;entryY=0;entryDx=0;entryDy=0;" edge="1" parent="1" source="ahbQg0oBCL9CJKPBySa7-19" target="ahbQg0oBCL9CJKPBySa7-21">
          <mxGeometry relative="1" as="geometry" />
        </mxCell>
        <mxCell id="ahbQg0oBCL9CJKPBySa7-19" value="&lt;b&gt;Administrative&lt;br&gt;Boundary&lt;br&gt;&lt;/b&gt;" style="shape=cylinder3;whiteSpace=wrap;html=1;boundedLbl=1;backgroundOutline=1;size=15;" vertex="1" parent="1">
          <mxGeometry x="475" y="220" width="90" height="80" as="geometry" />
        </mxCell>
        <mxCell id="ahbQg0oBCL9CJKPBySa7-20" value="" style="group" vertex="1" connectable="0" parent="1">
          <mxGeometry x="460" y="330" width="120" height="80" as="geometry" />
        </mxCell>
        <mxCell id="ahbQg0oBCL9CJKPBySa7-21" value="Edinburgh&lt;br&gt;Boundary" style="rounded=0;whiteSpace=wrap;html=1;" vertex="1" parent="ahbQg0oBCL9CJKPBySa7-20">
          <mxGeometry width="120" height="60" as="geometry" />
        </mxCell>
        <mxCell id="ahbQg0oBCL9CJKPBySa7-22" value="&lt;div style=&quot;&quot;&gt;&lt;b style=&quot;background-color: initial;&quot;&gt;&lt;span style=&quot;font-size: 10px;&quot;&gt;Spatial data&lt;/span&gt;&lt;/b&gt;&lt;/div&gt;" style="text;whiteSpace=wrap;html=1;align=center;verticalAlign=middle;" vertex="1" parent="ahbQg0oBCL9CJKPBySa7-20">
          <mxGeometry y="60" width="120" height="20" as="geometry" />
        </mxCell>
        <mxCell id="ahbQg0oBCL9CJKPBySa7-31" style="edgeStyle=orthogonalEdgeStyle;rounded=0;orthogonalLoop=1;jettySize=auto;html=1;exitX=0.5;exitY=1;exitDx=0;exitDy=0;entryX=0.5;entryY=0;entryDx=0;entryDy=0;" edge="1" parent="1" source="ahbQg0oBCL9CJKPBySa7-24" target="ahbQg0oBCL9CJKPBySa7-29">
          <mxGeometry relative="1" as="geometry" />
        </mxCell>
        <mxCell id="ahbQg0oBCL9CJKPBySa7-24" value="&lt;font color=&quot;#7da140&quot;&gt;&lt;b&gt;Select by Location&lt;/b&gt;&lt;/font&gt;&lt;br&gt;Method: Intersect" style="rounded=1;whiteSpace=wrap;html=1;" vertex="1" parent="1">
          <mxGeometry x="310" y="480" width="180" height="60" as="geometry" />
        </mxCell>
        <mxCell id="ahbQg0oBCL9CJKPBySa7-26" style="edgeStyle=orthogonalEdgeStyle;rounded=0;orthogonalLoop=1;jettySize=auto;html=1;exitX=0.5;exitY=1;exitDx=0;exitDy=0;" edge="1" parent="1" source="ahbQg0oBCL9CJKPBySa7-22" target="ahbQg0oBCL9CJKPBySa7-24">
          <mxGeometry relative="1" as="geometry">
            <Array as="points">
              <mxPoint x="520" y="460" />
              <mxPoint x="400" y="460" />
            </Array>
          </mxGeometry>
        </mxCell>
        <mxCell id="ahbQg0oBCL9CJKPBySa7-27" value="Edinburgh&#39;s Datazones&lt;br&gt;with Socioeconomic attributes" style="rounded=0;whiteSpace=wrap;html=1;" vertex="1" parent="1">
          <mxGeometry x="290" y="640" width="220" height="60" as="geometry" />
        </mxCell>
        <mxCell id="ahbQg0oBCL9CJKPBySa7-32" style="edgeStyle=orthogonalEdgeStyle;rounded=0;orthogonalLoop=1;jettySize=auto;html=1;exitX=0.5;exitY=1;exitDx=0;exitDy=0;entryX=0.5;entryY=0;entryDx=0;entryDy=0;" edge="1" parent="1" source="ahbQg0oBCL9CJKPBySa7-29" target="ahbQg0oBCL9CJKPBySa7-27">
          <mxGeometry relative="1" as="geometry" />
        </mxCell>
        <mxCell id="ahbQg0oBCL9CJKPBySa7-29" value="&lt;font color=&quot;#7da140&quot;&gt;&lt;b&gt;Edit the Data&lt;/b&gt;&lt;/font&gt;&lt;br&gt;Clear unnecessary datazones" style="rounded=1;whiteSpace=wrap;html=1;dashed=1;" vertex="1" parent="1">
          <mxGeometry x="310" y="560" width="180" height="60" as="geometry" />
        </mxCell>
      </root>
    </mxGraphModel>
  </diagram>
</mxfile>
